<mxfile host="65bd71144e">
    <diagram id="rBZckapkyAHG_2cJXnG5" name="第 1 页">
        <mxGraphModel dx="1887" dy="1139" grid="1" gridSize="10" guides="1" tooltips="1" connect="1" arrows="1" fold="1" page="1" pageScale="1" pageWidth="827" pageHeight="1169" math="0" shadow="0">
            <root>
                <mxCell id="0"/>
                <mxCell id="1" parent="0"/>
                <mxCell id="91" value="" style="rounded=0;whiteSpace=wrap;html=1;strokeWidth=2;dashed=1;" vertex="1" parent="1">
                    <mxGeometry x="70" y="810" width="240" height="100" as="geometry"/>
                </mxCell>
                <mxCell id="89" value="" style="rounded=0;whiteSpace=wrap;html=1;strokeWidth=2;dashed=1;" vertex="1" parent="1">
                    <mxGeometry x="70" y="700" width="240" height="100" as="geometry"/>
                </mxCell>
                <mxCell id="40" value="" style="rounded=0;whiteSpace=wrap;html=1;strokeWidth=2;dashed=1;" parent="1" vertex="1">
                    <mxGeometry x="-335" y="350" width="285" height="230" as="geometry"/>
                </mxCell>
                <mxCell id="28" value="" style="rounded=0;whiteSpace=wrap;html=1;strokeWidth=2;dashed=1;" parent="1" vertex="1">
                    <mxGeometry x="120" y="350" width="150" height="230" as="geometry"/>
                </mxCell>
                <mxCell id="27" value="" style="rounded=0;whiteSpace=wrap;html=1;strokeWidth=2;dashed=1;" parent="1" vertex="1">
                    <mxGeometry x="-40" y="350" width="150" height="230" as="geometry"/>
                </mxCell>
                <mxCell id="26" style="edgeStyle=orthogonalEdgeStyle;html=1;exitX=0.5;exitY=1;exitDx=0;exitDy=0;entryX=0.5;entryY=0;entryDx=0;entryDy=0;curved=1;strokeWidth=2;" parent="1" source="2" target="4" edge="1">
                    <mxGeometry relative="1" as="geometry"/>
                </mxCell>
                <mxCell id="37" style="edgeStyle=orthogonalEdgeStyle;html=1;exitX=0.5;exitY=1;exitDx=0;exitDy=0;entryX=0.5;entryY=0;entryDx=0;entryDy=0;curved=1;strokeWidth=2;" parent="1" source="2" target="36" edge="1">
                    <mxGeometry relative="1" as="geometry">
                        <Array as="points">
                            <mxPoint x="190" y="340"/>
                            <mxPoint x="-124" y="340"/>
                        </Array>
                    </mxGeometry>
                </mxCell>
                <mxCell id="38" style="edgeStyle=orthogonalEdgeStyle;html=1;exitX=0.5;exitY=1;exitDx=0;exitDy=0;entryX=0.5;entryY=0;entryDx=0;entryDy=0;curved=1;strokeWidth=2;" parent="1" source="2" target="35" edge="1">
                    <mxGeometry relative="1" as="geometry">
                        <Array as="points">
                            <mxPoint x="190" y="340"/>
                            <mxPoint x="-260" y="340"/>
                        </Array>
                    </mxGeometry>
                </mxCell>
                <mxCell id="2" value="数据源" style="rounded=1;whiteSpace=wrap;html=1;strokeWidth=2;fillColor=#d5e8d4;strokeColor=light-dark(#000000, #446e2c);" parent="1" vertex="1">
                    <mxGeometry x="120" y="280" width="140" height="40" as="geometry"/>
                </mxCell>
                <mxCell id="25" style="edgeStyle=none;html=1;exitX=0.5;exitY=1;exitDx=0;exitDy=0;entryX=0.5;entryY=0;entryDx=0;entryDy=0;strokeWidth=2;" parent="1" source="3" target="17" edge="1">
                    <mxGeometry relative="1" as="geometry"/>
                </mxCell>
                <mxCell id="3" value="atrace" style="rounded=1;whiteSpace=wrap;html=1;strokeWidth=2;fillColor=#FAFFF2;" parent="1" vertex="1">
                    <mxGeometry x="-20" y="400" width="120" height="60" as="geometry"/>
                </mxCell>
                <mxCell id="16" style="edgeStyle=none;html=1;exitX=0.5;exitY=1;exitDx=0;exitDy=0;entryX=0.5;entryY=0;entryDx=0;entryDy=0;strokeWidth=2;" parent="1" source="4" target="14" edge="1">
                    <mxGeometry relative="1" as="geometry"/>
                </mxCell>
                <mxCell id="4" value="ftrace" style="rounded=1;whiteSpace=wrap;html=1;strokeWidth=2;fillColor=#FAFFF2;" parent="1" vertex="1">
                    <mxGeometry x="130" y="400" width="120" height="60" as="geometry"/>
                </mxCell>
                <mxCell id="5" value="" style="curved=1;endArrow=classic;html=1;exitX=0.5;exitY=1;exitDx=0;exitDy=0;entryX=0.5;entryY=0;entryDx=0;entryDy=0;strokeWidth=2;" parent="1" source="2" target="3" edge="1">
                    <mxGeometry width="50" height="50" relative="1" as="geometry">
                        <mxPoint x="310" y="470" as="sourcePoint"/>
                        <mxPoint x="360" y="420" as="targetPoint"/>
                        <Array as="points">
                            <mxPoint x="170" y="340"/>
                            <mxPoint x="40" y="340"/>
                        </Array>
                    </mxGeometry>
                </mxCell>
                <mxCell id="47" style="edgeStyle=none;html=1;exitX=0.5;exitY=1;exitDx=0;exitDy=0;entryX=0.5;entryY=0;entryDx=0;entryDy=0;strokeWidth=2;" parent="1" source="7" target="46" edge="1">
                    <mxGeometry relative="1" as="geometry"/>
                </mxCell>
                <mxCell id="7" value="Perfetto" style="rounded=1;whiteSpace=wrap;html=1;fillColor=#dae8fc;strokeColor=light-dark(#000000, #5c79a3);strokeWidth=2;" parent="1" vertex="1">
                    <mxGeometry x="280" y="150" width="150" height="50" as="geometry"/>
                </mxCell>
                <mxCell id="8" value="" style="curved=1;endArrow=classic;html=1;exitX=0.5;exitY=1;exitDx=0;exitDy=0;entryX=0.5;entryY=0;entryDx=0;entryDy=0;strokeWidth=2;" parent="1" source="7" target="2" edge="1">
                    <mxGeometry width="50" height="50" relative="1" as="geometry">
                        <mxPoint x="360" y="410" as="sourcePoint"/>
                        <mxPoint x="410" y="360" as="targetPoint"/>
                        <Array as="points">
                            <mxPoint x="270" y="220"/>
                            <mxPoint x="190" y="250"/>
                        </Array>
                    </mxGeometry>
                </mxCell>
                <mxCell id="20" style="edgeStyle=none;html=1;exitX=0.5;exitY=1;exitDx=0;exitDy=0;entryX=0.5;entryY=0;entryDx=0;entryDy=0;strokeWidth=2;" parent="1" source="14" target="19" edge="1">
                    <mxGeometry relative="1" as="geometry"/>
                </mxCell>
                <mxCell id="14" value="available events" style="rounded=1;whiteSpace=wrap;html=1;strokeWidth=2;fillColor=#FFFFF4;strokeColor=#000000;" parent="1" vertex="1">
                    <mxGeometry x="130" y="520" width="120" height="30" as="geometry"/>
                </mxCell>
                <mxCell id="32" style="edgeStyle=none;html=1;exitX=0.5;exitY=1;exitDx=0;exitDy=0;entryX=0.5;entryY=0;entryDx=0;entryDy=0;strokeWidth=2;" parent="1" source="17" target="31" edge="1">
                    <mxGeometry relative="1" as="geometry"/>
                </mxCell>
                <mxCell id="17" value="自定义events" style="rounded=1;whiteSpace=wrap;html=1;strokeWidth=2;fillColor=#FFFFF4;strokeColor=#000000;" parent="1" vertex="1">
                    <mxGeometry x="-20" y="520" width="120" height="30" as="geometry"/>
                </mxCell>
                <mxCell id="78" style="edgeStyle=orthogonalEdgeStyle;html=1;exitX=1;exitY=0.5;exitDx=0;exitDy=0;entryX=0;entryY=0.5;entryDx=0;entryDy=0;curved=1;strokeWidth=2;" edge="1" parent="1" source="19" target="54">
                    <mxGeometry relative="1" as="geometry">
                        <Array as="points">
                            <mxPoint x="280" y="640"/>
                            <mxPoint x="280" y="700"/>
                            <mxPoint x="100" y="700"/>
                            <mxPoint x="100" y="760"/>
                        </Array>
                    </mxGeometry>
                </mxCell>
                <mxCell id="19" value="&lt;span style=&quot;background-color: transparent;&quot;&gt;写入ring buffer&lt;/span&gt;" style="rounded=0;whiteSpace=wrap;html=1;fillColor=#f5f5f5;fontColor=#333333;strokeColor=#666666;strokeWidth=2;" parent="1" vertex="1">
                    <mxGeometry x="130" y="610" width="120" height="60" as="geometry"/>
                </mxCell>
                <mxCell id="29" value="&lt;div&gt;&lt;font color=&quot;#000000&quot;&gt;用户&lt;/font&gt;&lt;/div&gt;&lt;div&gt;事件追踪&lt;/div&gt;" style="text;html=1;align=center;verticalAlign=middle;whiteSpace=wrap;rounded=0;strokeWidth=2;" parent="1" vertex="1">
                    <mxGeometry x="-30" y="350" width="60" height="30" as="geometry"/>
                </mxCell>
                <mxCell id="30" value="内核&lt;div&gt;事件追踪&lt;/div&gt;" style="text;html=1;align=center;verticalAlign=middle;whiteSpace=wrap;rounded=0;strokeWidth=2;" parent="1" vertex="1">
                    <mxGeometry x="120" y="350" width="60" height="30" as="geometry"/>
                </mxCell>
                <mxCell id="33" style="edgeStyle=none;html=1;exitX=1;exitY=0.5;exitDx=0;exitDy=0;entryX=0;entryY=0.5;entryDx=0;entryDy=0;strokeWidth=2;" parent="1" source="31" target="19" edge="1">
                    <mxGeometry relative="1" as="geometry"/>
                </mxCell>
                <mxCell id="31" value="&lt;span style=&quot;background-color: transparent;&quot;&gt;写入trace_marker&lt;/span&gt;" style="rounded=0;whiteSpace=wrap;html=1;fillColor=#f5f5f5;fontColor=#333333;strokeColor=#666666;strokeWidth=2;" parent="1" vertex="1">
                    <mxGeometry x="-20" y="610" width="120" height="60" as="geometry"/>
                </mxCell>
                <mxCell id="43" style="edgeStyle=orthogonalEdgeStyle;html=1;exitX=0.5;exitY=1;exitDx=0;exitDy=0;entryX=0.5;entryY=0;entryDx=0;entryDy=0;curved=1;strokeWidth=2;" parent="1" source="35" target="42" edge="1">
                    <mxGeometry relative="1" as="geometry"/>
                </mxCell>
                <mxCell id="35" value="..." style="rounded=1;whiteSpace=wrap;html=1;strokeWidth=2;fillColor=#FAFFF2;" parent="1" vertex="1">
                    <mxGeometry x="-320" y="400" width="120" height="60" as="geometry"/>
                </mxCell>
                <mxCell id="44" style="edgeStyle=orthogonalEdgeStyle;html=1;exitX=0.5;exitY=1;exitDx=0;exitDy=0;curved=1;entryX=0.5;entryY=0;entryDx=0;entryDy=0;strokeWidth=2;" parent="1" source="36" target="42" edge="1">
                    <mxGeometry relative="1" as="geometry">
                        <mxPoint x="-190" y="610" as="targetPoint"/>
                    </mxGeometry>
                </mxCell>
                <mxCell id="36" value="sys_stats" style="rounded=1;whiteSpace=wrap;html=1;strokeWidth=2;fillColor=#FAFFF2;" parent="1" vertex="1">
                    <mxGeometry x="-184" y="400" width="120" height="60" as="geometry"/>
                </mxCell>
                <mxCell id="77" style="edgeStyle=orthogonalEdgeStyle;html=1;exitX=0.5;exitY=1;exitDx=0;exitDy=0;entryX=0;entryY=0.5;entryDx=0;entryDy=0;curved=1;strokeWidth=2;" edge="1" parent="1" source="42" target="54">
                    <mxGeometry relative="1" as="geometry"/>
                </mxCell>
                <mxCell id="42" value="轮询/proc下的内容" style="rounded=0;whiteSpace=wrap;html=1;fillColor=#f5f5f5;fontColor=#333333;strokeColor=#666666;strokeWidth=2;" parent="1" vertex="1">
                    <mxGeometry x="-184" y="610" width="120" height="60" as="geometry"/>
                </mxCell>
                <mxCell id="45" value="CPU等信息" style="text;html=1;align=center;verticalAlign=middle;whiteSpace=wrap;rounded=0;strokeWidth=2;" parent="1" vertex="1">
                    <mxGeometry x="-330" y="350" width="70" height="30" as="geometry"/>
                </mxCell>
                <mxCell id="46" value="Processor" style="rounded=1;whiteSpace=wrap;html=1;strokeWidth=2;fillColor=#f8cecc;strokeColor=#000000;" parent="1" vertex="1">
                    <mxGeometry x="285" y="280" width="140" height="40" as="geometry"/>
                </mxCell>
                <mxCell id="48" value="UI" style="rounded=1;whiteSpace=wrap;html=1;strokeWidth=2;fillColor=#E5CCFF;strokeColor=light-dark(#000000, #446e2c);" parent="1" vertex="1">
                    <mxGeometry x="460" y="280" width="140" height="40" as="geometry"/>
                </mxCell>
                <mxCell id="50" value="" style="curved=1;endArrow=classic;html=1;entryX=0.5;entryY=0;entryDx=0;entryDy=0;strokeWidth=2;" parent="1" target="48" edge="1">
                    <mxGeometry width="50" height="50" relative="1" as="geometry">
                        <mxPoint x="355" y="200" as="sourcePoint"/>
                        <mxPoint x="530" y="200" as="targetPoint"/>
                        <Array as="points">
                            <mxPoint x="450" y="210"/>
                            <mxPoint x="530" y="250"/>
                        </Array>
                    </mxGeometry>
                </mxCell>
                <mxCell id="54" value="" style="shape=table;startSize=0;container=1;collapsible=0;childLayout=tableLayout;fontSize=16;rowLines=0;columnLines=1;strokeWidth=2;fillColor=#FFFFCC;" vertex="1" parent="1">
                    <mxGeometry x="130" y="730" width="120" height="60" as="geometry"/>
                </mxCell>
                <mxCell id="55" value="" style="shape=tableRow;horizontal=0;startSize=0;swimlaneHead=0;swimlaneBody=0;strokeColor=inherit;top=0;left=0;bottom=0;right=0;collapsible=0;dropTarget=0;fillColor=none;points=[[0,0.5],[1,0.5]];portConstraint=eastwest;fontSize=16;" vertex="1" parent="54">
                    <mxGeometry width="120" height="60" as="geometry"/>
                </mxCell>
                <mxCell id="56" value="" style="shape=partialRectangle;html=1;whiteSpace=wrap;connectable=0;strokeColor=inherit;overflow=hidden;fillColor=none;top=0;left=0;bottom=0;right=0;pointerEvents=1;fontSize=16;" vertex="1" parent="55">
                    <mxGeometry width="24" height="60" as="geometry">
                        <mxRectangle width="24" height="60" as="alternateBounds"/>
                    </mxGeometry>
                </mxCell>
                <mxCell id="57" value="" style="shape=partialRectangle;html=1;whiteSpace=wrap;connectable=0;strokeColor=inherit;overflow=hidden;fillColor=none;top=0;left=0;bottom=0;right=0;pointerEvents=1;fontSize=16;" vertex="1" parent="55">
                    <mxGeometry x="24" width="24" height="60" as="geometry">
                        <mxRectangle width="24" height="60" as="alternateBounds"/>
                    </mxGeometry>
                </mxCell>
                <mxCell id="58" value="" style="shape=partialRectangle;html=1;whiteSpace=wrap;connectable=0;strokeColor=inherit;overflow=hidden;fillColor=none;top=0;left=0;bottom=0;right=0;pointerEvents=1;fontSize=16;" vertex="1" parent="55">
                    <mxGeometry x="48" width="24" height="60" as="geometry">
                        <mxRectangle width="24" height="60" as="alternateBounds"/>
                    </mxGeometry>
                </mxCell>
                <mxCell id="67" style="shape=partialRectangle;html=1;whiteSpace=wrap;connectable=0;strokeColor=inherit;overflow=hidden;fillColor=none;top=0;left=0;bottom=0;right=0;pointerEvents=1;fontSize=16;" vertex="1" parent="55">
                    <mxGeometry x="72" width="24" height="60" as="geometry">
                        <mxRectangle width="24" height="60" as="alternateBounds"/>
                    </mxGeometry>
                </mxCell>
                <mxCell id="68" style="shape=partialRectangle;html=1;whiteSpace=wrap;connectable=0;strokeColor=inherit;overflow=hidden;fillColor=none;top=0;left=0;bottom=0;right=0;pointerEvents=1;fontSize=16;" vertex="1" parent="55">
                    <mxGeometry x="96" width="24" height="60" as="geometry">
                        <mxRectangle width="24" height="60" as="alternateBounds"/>
                    </mxGeometry>
                </mxCell>
                <mxCell id="69" value="" style="shape=table;startSize=0;container=1;collapsible=0;childLayout=tableLayout;fontSize=16;rowLines=0;columnLines=1;strokeWidth=2;fillColor=#FFE6CC;" vertex="1" parent="1">
                    <mxGeometry x="130" y="830" width="120" height="60" as="geometry"/>
                </mxCell>
                <mxCell id="70" value="" style="shape=tableRow;horizontal=0;startSize=0;swimlaneHead=0;swimlaneBody=0;strokeColor=inherit;top=0;left=0;bottom=0;right=0;collapsible=0;dropTarget=0;fillColor=none;points=[[0,0.5],[1,0.5]];portConstraint=eastwest;fontSize=16;" vertex="1" parent="69">
                    <mxGeometry width="120" height="60" as="geometry"/>
                </mxCell>
                <mxCell id="71" value="" style="shape=partialRectangle;html=1;whiteSpace=wrap;connectable=0;strokeColor=inherit;overflow=hidden;fillColor=none;top=0;left=0;bottom=0;right=0;pointerEvents=1;fontSize=16;" vertex="1" parent="70">
                    <mxGeometry width="24" height="60" as="geometry">
                        <mxRectangle width="24" height="60" as="alternateBounds"/>
                    </mxGeometry>
                </mxCell>
                <mxCell id="72" value="" style="shape=partialRectangle;html=1;whiteSpace=wrap;connectable=0;strokeColor=inherit;overflow=hidden;fillColor=none;top=0;left=0;bottom=0;right=0;pointerEvents=1;fontSize=16;" vertex="1" parent="70">
                    <mxGeometry x="24" width="24" height="60" as="geometry">
                        <mxRectangle width="24" height="60" as="alternateBounds"/>
                    </mxGeometry>
                </mxCell>
                <mxCell id="73" value="" style="shape=partialRectangle;html=1;whiteSpace=wrap;connectable=0;strokeColor=inherit;overflow=hidden;fillColor=none;top=0;left=0;bottom=0;right=0;pointerEvents=1;fontSize=16;" vertex="1" parent="70">
                    <mxGeometry x="48" width="24" height="60" as="geometry">
                        <mxRectangle width="24" height="60" as="alternateBounds"/>
                    </mxGeometry>
                </mxCell>
                <mxCell id="74" style="shape=partialRectangle;html=1;whiteSpace=wrap;connectable=0;strokeColor=inherit;overflow=hidden;fillColor=none;top=0;left=0;bottom=0;right=0;pointerEvents=1;fontSize=16;" vertex="1" parent="70">
                    <mxGeometry x="72" width="24" height="60" as="geometry">
                        <mxRectangle width="24" height="60" as="alternateBounds"/>
                    </mxGeometry>
                </mxCell>
                <mxCell id="75" style="shape=partialRectangle;html=1;whiteSpace=wrap;connectable=0;strokeColor=inherit;overflow=hidden;fillColor=none;top=0;left=0;bottom=0;right=0;pointerEvents=1;fontSize=16;" vertex="1" parent="70">
                    <mxGeometry x="96" width="24" height="60" as="geometry">
                        <mxRectangle width="24" height="60" as="alternateBounds"/>
                    </mxGeometry>
                </mxCell>
                <mxCell id="79" style="edgeStyle=orthogonalEdgeStyle;html=1;exitX=1;exitY=0.5;exitDx=0;exitDy=0;entryX=0;entryY=0.5;entryDx=0;entryDy=0;curved=1;strokeWidth=2;" edge="1" parent="1" source="55" target="69">
                    <mxGeometry relative="1" as="geometry">
                        <Array as="points">
                            <mxPoint x="270" y="760"/>
                            <mxPoint x="270" y="810"/>
                            <mxPoint x="100" y="810"/>
                            <mxPoint x="100" y="860"/>
                        </Array>
                    </mxGeometry>
                </mxCell>
                <mxCell id="96" style="edgeStyle=orthogonalEdgeStyle;html=1;exitX=0.5;exitY=0;exitDx=0;exitDy=0;entryX=0;entryY=0.75;entryDx=0;entryDy=0;curved=1;strokeWidth=2;" edge="1" parent="1" source="87" target="95">
                    <mxGeometry relative="1" as="geometry"/>
                </mxCell>
                <mxCell id="97" value="可视化" style="edgeLabel;html=1;align=center;verticalAlign=middle;resizable=0;points=[];" vertex="1" connectable="0" parent="96">
                    <mxGeometry x="0.3444" y="-6" relative="1" as="geometry">
                        <mxPoint as="offset"/>
                    </mxGeometry>
                </mxCell>
                <mxCell id="100" style="edgeStyle=none;html=1;exitX=0.5;exitY=0;exitDx=0;exitDy=0;entryX=0.5;entryY=1;entryDx=0;entryDy=0;strokeWidth=2;" edge="1" parent="1" source="87" target="99">
                    <mxGeometry relative="1" as="geometry"/>
                </mxCell>
                <mxCell id="87" value="trace file" style="rounded=0;whiteSpace=wrap;html=1;fillColor=#f5f5f5;fontColor=#333333;strokeColor=#666666;strokeWidth=2;" vertex="1" parent="1">
                    <mxGeometry x="295" y="610" width="120" height="60" as="geometry"/>
                </mxCell>
                <mxCell id="88" style="edgeStyle=orthogonalEdgeStyle;html=1;exitX=1;exitY=0.5;exitDx=0;exitDy=0;entryX=0.5;entryY=1;entryDx=0;entryDy=0;curved=1;strokeWidth=2;" edge="1" parent="1" source="70" target="87">
                    <mxGeometry relative="1" as="geometry"/>
                </mxCell>
                <mxCell id="92" value="SHMEM" style="text;html=1;align=center;verticalAlign=middle;whiteSpace=wrap;rounded=0;" vertex="1" parent="1">
                    <mxGeometry x="250" y="700" width="60" height="30" as="geometry"/>
                </mxCell>
                <mxCell id="93" value="Perfetto Buffer" style="text;html=1;align=center;verticalAlign=middle;whiteSpace=wrap;rounded=0;" vertex="1" parent="1">
                    <mxGeometry x="250" y="810" width="60" height="30" as="geometry"/>
                </mxCell>
                <mxCell id="95" value="ui.perfetto.dev/" style="rounded=1;whiteSpace=wrap;html=1;strokeWidth=2;fillColor=#F5EAFF;strokeColor=light-dark(#000000, #446e2c);" vertex="1" parent="1">
                    <mxGeometry x="460" y="340" width="140" height="260" as="geometry"/>
                </mxCell>
                <mxCell id="98" value="Metrics" style="rounded=1;whiteSpace=wrap;html=1;strokeWidth=2;fillColor=#FFEFEF;strokeColor=#000000;" vertex="1" parent="1">
                    <mxGeometry x="285" y="360" width="140" height="40" as="geometry"/>
                </mxCell>
                <mxCell id="99" value="Query" style="rounded=1;whiteSpace=wrap;html=1;strokeWidth=2;fillColor=#FFEFEF;strokeColor=#000000;" vertex="1" parent="1">
                    <mxGeometry x="285" y="445" width="140" height="40" as="geometry"/>
                </mxCell>
                <mxCell id="102" value="" style="curved=1;endArrow=classic;html=1;entryX=0;entryY=0.5;entryDx=0;entryDy=0;exitX=0.5;exitY=0;exitDx=0;exitDy=0;strokeWidth=2;" edge="1" parent="1" source="87" target="98">
                    <mxGeometry width="50" height="50" relative="1" as="geometry">
                        <mxPoint x="490" y="770" as="sourcePoint"/>
                        <mxPoint x="540" y="720" as="targetPoint"/>
                        <Array as="points">
                            <mxPoint x="285" y="570"/>
                            <mxPoint x="270" y="400"/>
                        </Array>
                    </mxGeometry>
                </mxCell>
                <mxCell id="103" style="edgeStyle=none;html=1;exitX=1;exitY=0.5;exitDx=0;exitDy=0;entryX=0.007;entryY=0.477;entryDx=0;entryDy=0;entryPerimeter=0;strokeWidth=2;" edge="1" parent="1" source="99" target="95">
                    <mxGeometry relative="1" as="geometry">
                        <mxPoint x="462" y="465" as="targetPoint"/>
                    </mxGeometry>
                </mxCell>
                <mxCell id="104" style="edgeStyle=none;html=1;exitX=1;exitY=0.5;exitDx=0;exitDy=0;entryX=-0.007;entryY=0.154;entryDx=0;entryDy=0;entryPerimeter=0;strokeWidth=2;" edge="1" parent="1" source="98" target="95">
                    <mxGeometry relative="1" as="geometry"/>
                </mxCell>
            </root>
        </mxGraphModel>
    </diagram>
</mxfile>